<svg xmlns="http://www.w3.org/2000/svg" xmlns:xlink="http://www.w3.org/1999/xlink" width="720" height="870" viewBox="0 0 360 435">
  <title>The Ashen Fortress — campaign chapter background</title>
  <defs>
    <g id="rock" stroke="#000" stroke-width="1.5" stroke-linejoin="round"><path d="m-13 8 4-13 10-5 11 8 2 10Z" fill="#80685d"/><path d="m-9-4 10-5 10 7-9 3Z" fill="#a18b75" stroke-width="1"/><path d="m1-7-3 7 5 3-2 4" fill="none" stroke-width="2"/><path d="m1-6-2 6 4 3" fill="none" stroke="#e0b568" stroke-width="1"/></g>
    <path id="crack" d="m-7-2 5 2 2 4 5 1m-7-5 4-3" fill="none" stroke="#a17865" stroke-width="1.1" stroke-linecap="round"/>
    <g id="brick" stroke="#000" stroke-width="1.2"><path d="m-7 0 4-4 10 2v6l-4 2-10-2Z" fill="#a18b75"/><path d="M-7 0 3 2 7-2M3 2V6" fill="none"/></g>
  </defs>
  <path fill="#bb8c76" d="M0 0H360V435H0Z"/>
  <path d="M0 74C49 70 63 82 113 73S187 81 227 74 318 84 360 71M0 424C56 414 102 433 163 421S281 433 360 419" fill="none" stroke="#a17865" stroke-width="1"/>

  <g><use xlink:href="#rock" x="322" y="83"/><use xlink:href="#brick" x="344" y="95"/><use xlink:href="#rock" x="28" y="172"/><use xlink:href="#brick" x="48" y="199"/><use xlink:href="#brick" x="22" y="218"/><use xlink:href="#rock" x="343" y="244"/><use xlink:href="#rock" x="28" y="371"/><use xlink:href="#brick" x="340" y="373"/><use xlink:href="#brick" x="281" y="376"/></g>
  <g><use xlink:href="#crack" x="24" y="92"/><use xlink:href="#crack" x="151" y="83"/><use xlink:href="#crack" x="238" y="91"/><use xlink:href="#crack" x="346" y="146"/><use xlink:href="#crack" x="111" y="223"/><use xlink:href="#crack" x="47" y="286"/><use xlink:href="#crack" x="178" y="293"/><use xlink:href="#crack" x="18" y="301"/><use xlink:href="#crack" x="259" y="369"/><use xlink:href="#crack" x="146" y="366"/><use xlink:href="#crack" x="190" y="425"/></g>
</svg>
