<svg xmlns="http://www.w3.org/2000/svg" xmlns:xlink="http://www.w3.org/1999/xlink" width="720" height="870" viewBox="0 0 360 435">
  <title>The Drowned Crypts — campaign chapter background</title>
  <defs>
    <g id="grave" stroke="#000" stroke-width="1.5" stroke-linejoin="round"><ellipse cy="11" rx="15" ry="4" fill="#668c94" stroke-width="1"/><path d="M-9 11V-8L-4-12H4L9-8V11Z" fill="#e8ddbd"/><path d="M5-7V8" fill="none" stroke="#a4977d" stroke-width="2"/><path d="M-4-2H4M0-6V3" fill="none"/><path d="m-8 5 5 2-2 3" fill="none" stroke-width="1"/></g>
    <path id="ripple" d="M-7 1H6M-3 4H3" fill="none" stroke="#668c94" stroke-width="1.2" stroke-linecap="round"/>
    <path id="reed" d="M0 4-3-5M0 4V-7M0 4 3-4" fill="none" stroke="#4d7379" stroke-width="1.3" stroke-linecap="round"/>
  </defs>
  <path fill="#7fa6aa" d="M0 0H360V435H0Z"/>
  <path d="M0 74C37 63 71 84 113 73S185 83 229 73 318 82 360 72M0 422C60 435 108 413 164 425S277 414 360 426" fill="none" stroke="#668c94" stroke-width="1"/>
  <g stroke="#000" stroke-width="1.6" stroke-linejoin="round">
    <ellipse cx="314" cy="351" rx="38" ry="9" fill="#668c94" stroke="none"/>
    <path d="M289 346V308L301 295H329L341 308V346Z" fill="#a4977d"/>
    <path d="M289 308 302 291H328L341 308Z" fill="#e8ddbd"/>
    <path d="M296 345V312H303V345M327 345V312H334V345" fill="#dfd0ab"/>
    <path d="M307 345V315L315 307 323 315V345Z" fill="#222a30"/>
    <path d="m311 325 4-5 4 5-1 10h-6Z" fill="#93c9bc"/>
    <path d="M283 346H347V352H283ZM279 353H351V358H279Z" fill="#dfd0ab"/>
    <path d="M311 291V280H319V291M308 284H322" fill="#e8ddbd"/>
    <path d="m291 322 5 3-4 5m44-23-6-3m-6 42 4-6-4-4" fill="none" stroke-width="1"/>
    <path d="M277 360H302M326 363H352M292 368H327" stroke="#4d7379" stroke-width="1"/>
  </g>
  <g><use xlink:href="#grave" x="325" y="82"/><use xlink:href="#reed" x="346" y="97"/><use xlink:href="#grave" x="27" y="171"/><use xlink:href="#reed" x="48" y="196"/><use xlink:href="#grave" x="342" y="246"/><use xlink:href="#reed" x="349" y="274"/><use xlink:href="#grave" x="27" y="373"/><use xlink:href="#reed" x="338" y="375"/></g>
  <g><use xlink:href="#ripple" x="23" y="92"/><use xlink:href="#ripple" x="151" y="83"/><use xlink:href="#ripple" x="238" y="91"/><use xlink:href="#ripple" x="346" y="146"/><use xlink:href="#ripple" x="21" y="217"/><use xlink:href="#ripple" x="111" y="223"/><use xlink:href="#ripple" x="47" y="286"/><use xlink:href="#ripple" x="178" y="293"/><use xlink:href="#ripple" x="18" y="301"/><use xlink:href="#ripple" x="260" y="370"/><use xlink:href="#ripple" x="144" y="366"/><use xlink:href="#ripple" x="190" y="425"/></g>
</svg>
